<svg width="431" height="430" viewBox="0 0 431 430" fill="none" xmlns="http://www.w3.org/2000/svg">
<rect x="134.438" y="131.534" width="27" height="27"/>
<rect x="179.635" y="131.534" width="27" height="27"/>
<rect x="224.832" y="131.534" width="27" height="27"/>
<rect x="270.028" y="131.534" width="27" height="27"/>
<rect x="134.438" y="175.011" width="27" height="27"/>
<rect x="179.635" y="175.011" width="27" height="27"/>
<rect x="224.832" y="175.011" width="27" height="27"/>
<rect x="270.028" y="175.011" width="27" height="27"/>
<rect x="134.438" y="223.238" width="27" height="27"/>
<rect x="179.635" y="223.238" width="27" height="27"/>
<rect x="224.832" y="223.238" width="27" height="27"/>
<rect x="270.028" y="223.238" width="27" height="27"/>
<rect x="134.438" y="271.466" width="27" height="27"/>
<rect x="179.635" y="271.466" width="27" height="27"/>
<rect x="224.832" y="271.466" width="27" height="27"/>
<rect x="270.028" y="271.466" width="27" height="27"/>
</svg>
