<svg width="20" height="20" viewBox="0 0 20 20" fill="none" xmlns="http://www.w3.org/2000/svg">
<path d="M0 13.2141C0 11.0676 0 8.91012 0 6.76367C0.0111502 6.69729 0.0334507 6.64197 0.0334507 6.57558C0.0557512 5.83428 0.0892019 5.07086 0.278756 4.32956C0.702465 2.66994 1.67254 1.45288 3.27817 0.766908C4.14789 0.390727 5.07336 0.29115 6.00998 0.246893C6.21069 0.235829 6.42254 0.213701 6.62324 0.202637C8.78639 0.202637 10.9607 0.202637 13.1238 0.202637C13.1907 0.213701 13.2465 0.235829 13.3134 0.235829C14.0716 0.257957 14.841 0.29115 15.5769 0.47924C17.2606 0.899678 18.476 1.86226 19.1784 3.45549C19.5575 4.3185 19.6579 5.23682 19.7025 6.16621C19.7136 6.36536 19.7359 6.57558 19.7471 6.77474C19.7471 8.92118 19.7471 11.0787 19.7471 13.2251C19.7359 13.2915 19.7136 13.3468 19.7136 13.4132C19.6913 14.1656 19.6579 14.929 19.4683 15.6592C19.0446 17.3299 18.0745 18.5359 16.4689 19.233C15.5992 19.6091 14.6737 19.7087 13.7371 19.753C13.5364 19.764 13.3245 19.7862 13.1238 19.7972C10.9607 19.7972 8.78639 19.7972 6.62324 19.7972C6.55634 19.7862 6.50059 19.764 6.43369 19.764C5.67547 19.7419 4.90611 19.7087 4.17019 19.5206C2.4865 19.1002 1.27113 18.1376 0.568662 16.5444C0.189554 15.6814 0.0892019 14.763 0.044601 13.8337C0.0334507 13.6234 0.0111502 13.4243 0 13.2141ZM17.9742 9.9944C17.963 9.9944 17.9519 9.9944 17.9407 9.9944C17.9407 9.17566 17.9519 8.36797 17.9407 7.54923C17.9184 6.7858 17.8961 6.01131 17.8181 5.24788C17.74 4.51765 17.4836 3.84274 16.9818 3.27847C16.2905 2.48185 15.365 2.14993 14.3504 2.08354C13.1907 2.01716 12.0311 1.99503 10.8715 1.98396C9.71186 1.9729 8.56339 1.9729 7.40376 1.99503C6.63439 2.00609 5.85388 2.03928 5.08451 2.11673C4.34859 2.19418 3.66843 2.44866 3.09977 2.94654C2.2858 3.63252 1.95129 4.53978 1.88439 5.55768C1.81749 6.70835 1.79519 7.85902 1.78404 9.00969C1.77289 10.1604 1.77289 11.3 1.79519 12.4506C1.80634 13.2141 1.83979 13.9886 1.91784 14.752C1.99589 15.4822 2.25235 16.1571 2.75411 16.7214C3.44543 17.518 4.3709 17.8499 5.38557 17.9163C6.54519 17.9827 7.70482 18.0048 8.86444 18.0159C10.0241 18.027 11.1725 18.027 12.3322 18.0048C13.1796 17.9827 14.0493 17.9716 14.8856 17.8389C16.324 17.6176 17.294 16.7878 17.6731 15.3826C17.7958 14.929 17.8627 14.4422 17.885 13.9664C17.9407 12.6387 17.9407 11.311 17.9742 9.9944Z" fill="#442547"/>
<path d="M14.9412 9.99439C14.9412 12.7826 12.6665 15.0286 9.85664 15.0175C7.05793 15.0175 4.79443 12.7604 4.79443 9.98333C4.79443 7.20623 7.06908 4.96021 9.87894 4.96021C12.6777 4.97127 14.9412 7.21729 14.9412 9.99439ZM9.86779 13.2472C11.663 13.2472 13.1571 11.7868 13.1571 10.0276C13.1571 8.21306 11.6964 6.73047 9.90125 6.73047C8.06146 6.73047 6.58962 8.17987 6.58962 9.98333C6.58962 11.7868 8.0503 13.2472 9.86779 13.2472Z" fill="#442547"/>
<path d="M15.1198 3.58887C15.7777 3.58887 16.3129 4.10888 16.3129 4.76167C16.3129 5.41445 15.7777 5.94553 15.1198 5.94553C14.462 5.94553 13.9268 5.40339 13.9268 4.76167C13.9491 4.11995 14.4731 3.58887 15.1198 3.58887Z" fill="#442547"/>
</svg>
