<svg width="431" height="430" viewBox="0 0 431 430" fill="none" xmlns="http://www.w3.org/2000/svg">
<path d="M213.304 16.2703L235.346 91.1582H191.262L213.304 16.2703Z"/>
<path d="M351.119 68.8443L313.752 137.384L282.579 106.212L351.119 68.8443Z"/>
<path d="M23.2207 210.262L98.1086 188.22L98.1086 232.304L23.2207 210.262Z"/>
<path d="M75.7951 72.4464L144.335 109.814L113.163 140.986L75.7951 72.4464Z"/>
<path d="M408.246 210.262L333.358 232.304L333.358 188.22L408.246 210.262Z"/>
<path d="M350.813 353.455L282.273 316.087L313.445 284.915L350.813 353.455Z"/>
<path d="M216.187 413.73L194.145 338.842L238.229 338.842L216.187 413.73Z"/>
<path d="M75.795 354.127L113.163 285.587L144.335 316.759L75.795 354.127Z"/>
</svg>
