<svg width="26" height="20" viewBox="0 0 26 20" fill="none" xmlns="http://www.w3.org/2000/svg">
<path d="M25.5959 4.8162C25.5959 4.8162 25.3485 3.02532 24.5634 2.23776C23.5848 1.20207 22.4878 1.20207 21.9823 1.13734C18.358 0.878418 12.9377 0.878418 12.9377 0.878418H12.927C12.927 0.878418 7.49593 0.878418 3.8824 1.13734C3.37693 1.20207 2.26921 1.20207 1.29055 2.23776C0.516219 3.02532 0.25811 4.8162 0.25811 4.8162C0.25811 4.8162 0 6.90915 0 9.0129V10.9764C0 13.0801 0.25811 15.1731 0.25811 15.1731C0.25811 15.1731 0.505465 16.964 1.29055 17.7515C2.26921 18.7872 3.57052 18.7549 4.14051 18.8627C6.20538 19.0569 12.9377 19.1217 12.9377 19.1217C12.9377 19.1217 18.3688 19.1109 21.9931 18.852C22.4986 18.7872 23.5955 18.7872 24.5849 17.7515C25.3593 16.964 25.6174 15.1731 25.6174 15.1731C25.6174 15.1731 25.8755 13.0693 25.8755 10.9764V9.0129C25.854 6.90915 25.5959 4.8162 25.5959 4.8162ZM10.2599 13.3606V6.06766L17.2503 9.72493L10.2599 13.3606Z" fill="#442547"/>
<path opacity="0.12" fill-rule="evenodd" clip-rule="evenodd" d="M10.2598 6.07861L16.3899 10.1782L17.2502 9.73589L10.2598 6.07861Z" fill="#442547"/>
</svg>
