<?xml version="1.0" standalone="no"?>
<!DOCTYPE svg PUBLIC "-//W3C//DTD SVG 20010904//EN"
 "http://www.w3.org/TR/2001/REC-SVG-20010904/DTD/svg10.dtd">
<svg version="1.0" xmlns="http://www.w3.org/2000/svg"
 width="260.000000pt" height="260.000000pt" viewBox="0 0 260.000000 260.000000"
 preserveAspectRatio="xMidYMid meet">
<metadata>
Created by potrace 1.11, written by Peter Selinger 2001-2013
</metadata>
<g transform="translate(0.000000,260.000000) scale(0.100000,-0.100000)"
fill="#000000" stroke="none">
<path d="M1065 2495 c-234 -49 -408 -140 -594 -311 l-45 -41 333 0 c271 -1
335 -3 342 -14 15 -24 10 -294 -5 -315 -13 -17 -37 -18 -362 -18 l-349 -1 0
-183 0 -182 296 0 c230 0 299 -3 307 -13 13 -15 14 -288 1 -308 -7 -11 -63
-14 -291 -15 -156 -1 -290 -2 -298 -3 -13 -1 -15 -38 -15 -285 0 -321 -9 -283
93 -380 57 -54 152 -127 192 -148 14 -7 27 -16 30 -19 12 -14 163 -79 237
-102 123 -39 222 -55 356 -55 144 0 210 8 354 48 123 33 320 136 398 207 11
10 38 33 60 52 89 77 97 45 -83 348 -176 296 -255 441 -351 643 -72 152 -84
170 -77 120 6 -38 12 -131 22 -310 3 -63 7 -249 8 -413 2 -234 -1 -300 -11
-309 -14 -12 -313 -15 -332 -4 -15 10 -16 1642 0 1651 16 11 358 10 368 -1 5
-5 64 -106 131 -224 67 -118 134 -235 149 -260 62 -103 197 -387 270 -565 4
-11 7 215 7 503 l-1 522 -30 32 c-85 92 -211 186 -332 247 -174 89 -311 122
-518 126 -126 3 -167 0 -260 -20z"/>
</g>
</svg>
