<svg width="18" height="26" viewBox="0 0 18 26" fill="none" xmlns="http://www.w3.org/2000/svg">
<path d="M14.8405 11.1609C15.8835 11.3522 16.6259 11.787 17.059 12.4652C17.4921 13.1435 17.7043 14.2043 17.7043 15.6565C17.7043 18.5435 16.8204 20.9 15.0615 22.7435C13.3025 24.5783 11.0398 25.5 8.29971 25.5C7.22137 25.5 6.16954 25.3087 5.15307 24.9261C4.1366 24.5435 3.26155 24.0043 2.52792 23.3174C1.68823 22.5609 1.06067 21.7609 0.645238 20.9261C0.212133 20.0826 0 19.2217 0 18.3435C0 17.3609 0.212133 16.5957 0.645238 16.0565C1.07834 15.5174 1.75894 15.1522 2.68702 14.9609C2.51024 14.5609 2.3865 14.2217 2.30695 13.9435C2.2274 13.6652 2.1832 13.4565 2.1832 13.3087C2.1832 12.7957 2.45721 12.2652 3.01406 11.7261C3.57091 11.187 4.08356 10.9174 4.57854 10.9174C4.79067 10.9174 5.01165 10.9522 5.24146 11.0304C5.47127 11.1087 5.74527 11.2304 6.0458 11.3957C5.14423 8.9087 4.49015 6.97826 4.08356 5.62174C3.67698 4.26522 3.47368 3.32609 3.47368 2.81304C3.47368 2.1 3.6593 1.54348 4.03053 1.11739C4.40176 0.708696 4.91442 0.5 5.55082 0.5C6.64684 0.5 8.02571 2.9 9.70509 7.7087C9.99678 8.53478 10.2177 9.16957 10.368 9.61304C10.4918 9.25652 10.6774 8.75217 10.9072 8.1C12.5866 3.33478 14.0273 0.952174 15.2382 0.952174C15.8304 0.952174 16.3077 1.15217 16.6613 1.54348C17.0148 1.93478 17.1916 2.46522 17.1916 3.13478C17.1916 3.63913 16.9972 4.56087 16.6083 5.9C16.2193 7.24783 15.6271 9.00435 14.8405 11.1609ZM2.3423 18.1696C2.5014 18.3609 2.73121 18.6478 3.0229 19.0304C3.79188 20.0739 4.49899 20.5957 5.15307 20.5957C5.37404 20.5957 5.5685 20.5261 5.74527 20.387C5.92205 20.2478 6.01044 20.1087 6.01044 19.9609C6.01044 19.787 5.89553 19.5 5.66572 19.1C5.43591 18.7 5.10887 18.2478 4.70229 17.7435C4.23382 17.1609 3.85375 16.7348 3.54439 16.4652C3.23503 16.1957 2.98754 16.0652 2.80193 16.0652C2.39534 16.0652 2.01527 16.2826 1.67939 16.7087C1.33467 17.1348 1.16673 17.6478 1.16673 18.2304C1.16673 18.7 1.28164 19.2217 1.52029 19.8043C1.75894 20.3783 2.10365 20.9609 2.56328 21.5435C3.25271 22.4478 4.10124 23.1435 5.11771 23.6304C6.13418 24.1174 7.26556 24.3609 8.49417 24.3609C10.7658 24.3609 12.6661 23.5261 14.1952 21.8652C15.7244 20.1957 16.4934 18.1174 16.4934 15.6043C16.4934 14.8391 16.4315 14.2304 16.3166 13.7783C16.2017 13.3261 16.0072 12.9957 15.7421 12.787C15.2648 12.3957 14.3367 12.0478 12.9578 11.7435C11.5789 11.4304 10.1382 11.2826 8.63559 11.2826C8.22016 11.2826 7.91964 11.3522 7.74286 11.4913C7.56608 11.6304 7.47769 11.8652 7.47769 12.1957C7.47769 12.9783 7.91964 13.5348 8.80353 13.8913C9.68742 14.2391 11.1193 14.413 13.0992 14.413H13.8152C13.9743 14.413 14.1069 14.4739 14.2041 14.5957C14.3013 14.7174 14.372 14.9 14.4074 15.1348C14.2129 15.3174 13.8063 15.5261 13.1876 15.7609C12.5689 15.9957 12.1004 16.2304 11.7734 16.4565C11.0751 16.9609 10.5094 17.5609 10.0852 18.2478C9.6609 18.9435 9.44877 19.5957 9.44877 20.213C9.44877 20.587 9.53715 21.0478 9.72277 21.5783C9.89955 22.1087 9.99678 22.4391 9.99678 22.5696V22.6913L9.96142 22.8478C9.44876 22.813 9.04218 22.5174 8.75049 21.9609C8.44997 21.4043 8.30855 20.6652 8.30855 19.7348V19.5783C8.21132 19.6565 8.12293 19.7174 8.03454 19.7522C7.94616 19.787 7.84893 19.8043 7.74286 19.8043C7.63679 19.8043 7.53957 19.7957 7.44234 19.7783C7.34511 19.7609 7.24788 19.7348 7.12414 19.7C7.15949 19.8304 7.18601 19.9522 7.20369 20.0652C7.22137 20.187 7.23021 20.2826 7.23021 20.3522C7.23021 20.7783 7.06227 21.1435 6.72639 21.4391C6.39051 21.7435 5.98392 21.8913 5.5243 21.8913C4.79067 21.8913 4.04821 21.5435 3.28806 20.8391C2.52792 20.1348 2.15669 19.4478 2.15669 18.7696C2.15669 18.6478 2.17437 18.5348 2.20088 18.4304C2.21856 18.3261 2.27159 18.2391 2.3423 18.1696ZM7.57492 18.5783C7.76938 18.5783 7.95499 18.4913 8.11409 18.3087C8.27319 18.1348 8.36158 17.9435 8.36158 17.7348C8.36158 17.5174 8.20248 17.013 7.88428 16.213C7.56608 15.4217 7.16833 14.6391 6.69103 13.8652C6.34632 13.2913 6.0016 12.8565 5.65688 12.5696C5.32101 12.2739 5.00281 12.1348 4.69345 12.1348C4.44596 12.1348 4.18079 12.2826 3.88027 12.587C3.57975 12.8913 3.43833 13.1696 3.43833 13.4391C3.43833 13.7174 3.57975 14.1261 3.87143 14.6739C4.16311 15.2217 4.55202 15.8043 5.03816 16.4217C5.55082 17.1 6.03696 17.6217 6.48774 18.0043C6.94736 18.3957 7.30976 18.5783 7.57492 18.5783ZM9.28967 10.2913L7.39814 4.92609C6.91201 3.56957 6.53193 2.67391 6.26677 2.25652C6.0016 1.83913 5.70992 1.63043 5.39172 1.63043C5.14423 1.63043 4.94977 1.72609 4.79951 1.9087C4.64925 2.0913 4.5697 2.33478 4.5697 2.64783C4.5697 3.17826 4.773 4.0913 5.17958 5.39565C5.58617 6.7 6.19606 8.41304 7.00923 10.5261C7.07995 10.4043 7.17717 10.3087 7.30976 10.2565C7.4335 10.2043 7.61028 10.1783 7.83125 10.1783C7.90196 10.1783 8.04338 10.187 8.24668 10.1957C8.46765 10.213 8.81237 10.2391 9.28967 10.2913ZM11.2607 15.4913C10.7569 15.4652 10.2885 15.413 9.83768 15.3348C9.38689 15.2565 8.96263 15.1435 8.55604 14.9957C8.74165 15.3609 8.90959 15.7261 9.05102 16.0913C9.19244 16.4565 9.31618 16.8217 9.40457 17.1696C9.68742 16.8304 9.9791 16.5174 10.2885 16.2304C10.5978 15.9609 10.9249 15.7087 11.2607 15.4913ZM13.5765 10.8739C14.3543 8.78696 14.9642 7.07391 15.3973 5.71739C15.8304 4.36087 16.0514 3.52609 16.0514 3.22174C16.0514 2.8913 15.9807 2.63043 15.8304 2.44783C15.689 2.26522 15.4857 2.16957 15.2294 2.16957C14.9024 2.16957 14.5753 2.43913 14.2306 2.96957C13.8947 3.5 13.5235 4.36087 13.1169 5.53478L11.3756 10.5L13.5765 10.8739Z" fill="#442547"/>
</svg>
