<svg viewBox="0 0 83 13" fill="none" xmlns="http://www.w3.org/2000/svg">
<path d="M8.88762 2.48704C8.88762 2.65091 8.80592 2.81478 8.56081 2.81478H3.4953V5.60056H7.8255C7.9889 5.51863 8.0706 5.6825 8.0706 5.84637V7.73087C8.0706 7.89473 7.9889 8.0586 7.74379 8.0586H3.4953V12.4011C3.4953 12.6469 3.4136 12.7289 3.1685 12.7289H0.962549C0.717444 12.7289 0.635742 12.6469 0.635742 12.4011V0.52061C0.635742 0.274806 0.717444 0.192871 0.962549 0.192871H8.56081C8.80592 0.192871 8.88762 0.274806 8.88762 0.52061V2.48704Z" />
<path d="M10.6032 12.7272C10.4398 12.7272 10.2764 12.6453 10.2764 12.3995V3.87828C10.2764 3.71441 10.4398 3.55054 10.6032 3.55054H12.6457C12.8091 3.55054 12.9725 3.63247 12.9725 3.87828V12.3995C12.9725 12.6453 12.8908 12.7272 12.6457 12.7272H10.6032Z" />
<path d="M10.6032 2.81322C10.4398 2.81322 10.2764 2.73129 10.2764 2.48548V0.437114C10.2764 0.19131 10.4398 0.109375 10.6032 0.109375H12.6457C12.8091 0.109375 12.9725 0.19131 12.9725 0.437114V2.56742C12.9725 2.81322 12.8908 2.89516 12.6457 2.89516H10.6032V2.81322Z" />
<path d="M18.2016 12.9732C16.9761 12.9732 15.6688 12.6454 14.525 11.8261C14.3616 11.6622 14.3616 11.5803 14.4433 11.4164L15.2603 10.0235C15.4237 9.85966 15.5054 9.77772 15.6688 9.94159C16.4042 10.4332 17.3029 10.7609 18.2016 10.7609C18.9369 10.7609 19.4271 10.5151 19.4271 10.0235C19.4271 9.53192 18.8552 9.36805 18.2016 9.28612C16.3225 8.95838 14.7701 8.13903 14.7701 6.33647C14.7701 4.37003 16.2408 3.46875 18.6101 3.46875C19.6722 3.46875 20.6526 3.71455 21.7148 4.2881C21.8782 4.2881 21.8782 4.45197 21.7965 4.61584L20.9795 6.00873C20.8978 6.1726 20.7343 6.25453 20.5709 6.1726C19.999 5.84486 19.2637 5.68099 18.5284 5.68099C17.7931 5.68099 17.3846 5.92679 17.3846 6.33647C17.3846 6.82807 17.7931 6.99194 18.9369 7.15581C20.7343 7.48355 22.205 8.22096 22.205 10.0235C22.205 11.99 20.7343 12.9732 18.2016 12.9732Z" />
<path d="M27.5154 12.9731C24.901 12.9731 23.3486 11.4983 23.3486 9.12215V7.15572C23.3486 4.86154 24.901 3.38672 27.5154 3.38672C28.4958 3.38672 29.4763 3.63252 30.375 4.20607C30.5384 4.288 30.5384 4.45187 30.4567 4.61574L29.558 6.00863C29.4763 6.1725 29.3129 6.1725 29.1495 6.09056C28.6592 5.84476 28.169 5.68089 27.6788 5.68089C26.6984 5.68089 26.1265 6.1725 26.1265 7.07378V9.12215C26.1265 10.1054 26.6984 10.597 27.6788 10.597C28.2507 10.597 28.8227 10.4331 29.3946 10.1054C29.558 10.0234 29.7214 10.0234 29.8031 10.1873L30.7835 11.5802C30.8652 11.7441 30.8652 11.9079 30.7018 11.9899C29.7214 12.6453 28.7409 12.9731 27.5154 12.9731Z" />
<path d="M35.5226 3.38672C37.9736 3.38672 39.3626 4.61574 39.3626 7.31959V12.1537C39.3626 12.3176 39.2809 12.4815 39.1175 12.4815C38.0553 12.8092 36.6664 12.9731 35.5226 12.9731C32.9898 12.9731 31.4375 11.9899 31.4375 9.9415C31.4375 8.13893 32.9081 7.23765 35.2775 7.23765C35.8494 7.23765 36.3396 7.31959 36.7481 7.31959V7.15572C36.7481 6.25443 36.4213 5.68089 35.2775 5.68089C34.5422 5.68089 33.5617 5.9267 33.0715 6.1725C32.9081 6.25443 32.7447 6.25443 32.663 6.09056L31.9277 4.69767C31.846 4.5338 31.846 4.36994 31.9277 4.288C32.7447 3.79639 33.9703 3.38672 35.5226 3.38672ZM35.4409 10.7608C35.8494 10.7608 36.3396 10.6789 36.6664 10.597V9.12215C36.3396 9.04021 35.8494 9.04021 35.4409 9.04021C34.4605 9.04021 34.052 9.36795 34.052 9.9415C34.052 10.515 34.6239 10.7608 35.4409 10.7608Z" />
<path d="M44.3462 12.973C42.3037 12.973 41.0781 11.744 41.0781 9.53172V0.518901C41.0781 0.273097 41.1598 0.191162 41.4049 0.191162H43.4475C43.6109 0.191162 43.7743 0.273097 43.7743 0.518901V9.28592C43.7743 10.1872 44.1011 10.5969 44.8364 10.5969C44.9998 10.5969 45.2449 10.5969 45.4083 10.5969C45.6534 10.5969 45.7351 10.6788 45.7351 10.9246V12.6452C45.7351 12.8091 45.6534 12.973 45.5717 12.973C45.2449 12.891 44.8364 12.973 44.3462 12.973Z" />
<path d="M47.4508 12.7272C47.2057 12.7272 47.124 12.6452 47.124 12.3994V0.518901C47.124 0.273097 47.2057 0.191162 47.4508 0.191162H49.8202C49.9836 0.191162 50.0653 0.273097 50.147 0.436966L52.5163 4.61564C53.2517 6.00853 53.987 7.48335 54.3955 8.38463H54.4772C54.3138 6.82787 54.3138 5.18918 54.3138 3.71436V0.518901C54.3138 0.273097 54.3955 0.191162 54.6406 0.191162H56.8465C57.0099 0.191162 57.1733 0.273097 57.1733 0.518901V12.3994C57.1733 12.6452 57.0916 12.7272 56.8465 12.7272H54.4772C54.3138 12.7272 54.2321 12.6452 54.0687 12.4814L51.781 8.71237C51.0457 7.40142 50.147 5.59885 49.7385 4.61564H49.6568C49.8202 6.25433 49.9019 8.0569 49.9019 9.61366V12.3994C49.9019 12.6452 49.8202 12.7272 49.5751 12.7272H47.4508Z" />
<path d="M63.0555 12.9731C60.441 12.9731 58.8887 11.5802 58.8887 9.28602V7.15572C58.8887 4.77961 60.5227 3.38672 63.0555 3.38672C65.5882 3.38672 67.2223 4.77961 67.2223 7.15572V9.28602C67.2223 11.5802 65.5882 12.9731 63.0555 12.9731ZM63.0555 10.597C63.9542 10.597 64.5261 10.1054 64.5261 9.20408V7.15572C64.5261 6.25443 64.0359 5.76283 63.0555 5.76283C62.1567 5.76283 61.5848 6.25443 61.5848 7.15572V9.28602C61.5848 10.1054 62.075 10.597 63.0555 10.597Z" />
<path d="M72.6966 10.597C72.86 10.597 73.1051 10.597 73.2685 10.597C73.5136 10.597 73.5953 10.6789 73.5953 10.8428V12.5634C73.5953 12.7273 73.5136 12.8912 73.3502 12.8912C73.0234 12.9731 72.6966 12.9731 72.2064 12.9731C70.1638 12.9731 68.7749 11.826 68.7749 9.61379V1.66612C68.7749 1.50225 68.8566 1.33838 69.1017 1.33838H70.8991C71.0626 1.33838 71.226 1.42031 71.226 1.58418L71.4711 3.71449H73.0234C73.1868 3.71449 73.3502 3.79642 73.3502 4.04222V5.76285C73.3502 5.92672 73.1868 6.09059 73.0234 6.09059H71.4711V9.28605C71.4711 10.1054 71.8796 10.597 72.6966 10.597Z" />
<path d="M82.5826 8.79431C82.5826 8.95818 82.5009 9.12205 82.2558 9.12205H77.272V9.36786C77.272 10.2691 77.8439 10.7607 78.7426 10.7607C79.6413 10.7607 80.3767 10.5149 80.9486 10.1053C81.112 9.9414 81.2754 10.0233 81.3571 10.1872L82.2558 11.4162C82.3375 11.5801 82.3375 11.744 82.1741 11.8259C81.2754 12.4814 80.1316 12.973 78.5792 12.973C76.2916 12.973 74.4941 11.744 74.4941 9.28592V7.07368C74.4941 4.45177 76.3733 3.30469 78.5792 3.30469C80.7035 3.30469 82.5009 4.36984 82.5009 7.07368V8.79431H82.5826ZM78.6609 5.59886C77.8439 5.59886 77.272 6.00853 77.272 6.99175V7.31949H79.9682V6.99175C79.9682 6.00853 79.3962 5.59886 78.6609 5.59886Z" />
</svg>
