<svg width="431" height="430" viewBox="0 0 431 430" fill="none" xmlns="http://www.w3.org/2000/svg">
<path d="M90.0599 118.723L129.438 144.159L129.438 195.03L90.0599 220.466L50.6823 195.03L50.6823 144.159L90.0599 118.723Z"/>
<path d="M188.999 117.822L228.376 143.258L228.376 194.129L188.999 219.565L149.621 194.129L149.621 143.258L188.999 117.822Z"/>
<path d="M93.0599 300.079L132.438 325.515L132.438 376.386L93.0599 401.822L53.6823 376.386L53.6823 325.515L93.0599 300.079Z"/>
<path d="M191.999 299.178L231.376 324.614L231.376 375.485L191.999 400.921L152.621 375.485L152.621 324.614L191.999 299.178Z"/>
<path d="M237.468 28.178L276.846 53.6137L276.846 104.485L237.468 129.921L198.091 104.485L198.091 53.6137L237.468 28.178Z"/>
<path d="M287.937 117.822L327.315 143.258L327.315 194.129L287.937 219.565L248.56 194.129L248.56 143.258L287.937 117.822Z"/>
<path d="M141.529 209.466L180.907 234.901L180.907 285.773L141.529 311.209L102.152 285.773L102.152 234.901L141.529 209.466Z"/>
<path d="M241.468 208.565L280.846 234L280.846 284.872L241.468 310.307L202.091 284.872L202.091 234L241.468 208.565Z"/>
<path d="M341.407 208.565L380.784 234L380.784 284.872L341.407 310.307L302.029 284.872L302.029 234L341.407 208.565Z"/>
</svg>
