<svg width="20" height="21" viewBox="0 0 20 21" fill="none" xmlns="http://www.w3.org/2000/svg">
<path d="M0.329591 7.44648H4.47097V20.7227H0.329591V7.44648ZM2.39311 0.851318C3.72581 0.851318 4.78623 1.92428 4.78623 3.24046C4.78623 4.55663 3.71148 5.6296 2.39311 5.6296C1.07475 5.6296 0 4.55663 0 3.24046C0 1.92428 1.07475 0.851318 2.39311 0.851318Z" fill="#442547"/>
<path d="M7.05029 7.44599H11.0054V9.26288H11.0627C11.6072 8.21852 12.9686 7.11694 14.9748 7.11694C19.1592 7.11694 19.933 9.86374 19.933 13.4403V20.7222H15.8059V14.2701C15.8059 12.725 15.7773 10.7507 13.6564 10.7507C11.5069 10.7507 11.1773 12.4246 11.1773 14.1556V20.7222H7.05029V7.44599Z" fill="#442547"/>
</svg>
