<svg width="431" height="431" viewBox="0 0 431 431" fill="none" xmlns="http://www.w3.org/2000/svg">
<path d="M243.312 153.405C243.312 137.92 239.493 122.674 232.194 109.018C224.894 95.3613 214.34 83.7159 201.465 75.113C188.589 66.5102 173.791 61.2153 158.381 59.6975C142.971 58.1798 127.424 60.4859 113.118 66.4117C98.8122 72.3374 86.1883 81.6999 76.3649 93.6698C66.5414 105.64 59.8217 119.848 56.8007 135.035C53.7798 150.222 54.551 165.92 59.046 180.738C63.541 195.556 71.621 209.037 82.5704 219.986L149.152 153.405H243.312Z"/>
<path d="M327.894 353.149C341.062 339.98 350.03 323.203 353.663 304.937C357.297 286.672 355.432 267.739 348.305 250.534C341.178 233.328 329.11 218.622 313.625 208.276C298.14 197.929 279.935 192.407 261.312 192.407V286.567L327.894 353.149Z"/>
</svg>
