<svg width="431" height="430" viewBox="0 0 431 430" fill="none" xmlns="http://www.w3.org/2000/svg">
<path d="M41.4604 229.748C34.9634 226.395 34.9634 217.105 41.4604 213.752L193.242 135.426C199.232 132.335 206.369 136.684 206.369 143.424L206.369 300.076C206.369 306.816 199.232 311.165 193.242 308.074L41.4604 229.748Z"/>
<path d="M389.006 307.752C395.503 311.105 395.503 320.395 389.006 323.748L237.225 402.074C231.235 405.165 224.098 400.816 224.098 394.076L224.098 237.424C224.098 230.684 231.235 226.335 237.225 229.426L389.006 307.752Z"/>
<path d="M389.006 106.252C395.503 109.605 395.503 118.895 389.006 122.248L237.225 200.574C231.235 203.665 224.098 199.316 224.098 192.576L224.098 35.9244C224.098 29.1837 231.235 24.8353 237.225 27.9265L389.006 106.252Z"/>
</svg>
