<svg width="431" height="430" viewBox="0 0 431 430" fill="none" xmlns="http://www.w3.org/2000/svg">
<path d="M54.9716 106.365L181.093 156.821L161.729 190.362L54.9716 106.365Z"/>
<path d="M54.9716 285.635L161.729 201.638L181.093 235.179L54.9716 285.635Z"/>
<path d="M341.419 285.635L215.297 235.179L234.662 201.638L341.419 285.635Z"/>
<path d="M341.419 106.365L234.662 190.362L215.297 156.821L341.419 106.365Z"/>
<path d="M75.4346 316.378L132.977 323.244L128.7 339.203L75.4346 316.378Z"/>
<path d="M95.2284 390.25L129.945 343.85L141.628 355.533L95.2284 390.25Z"/>
<path d="M213.264 358.622L155.723 351.756L159.999 335.797L213.264 358.622Z"/>
<path d="M193.471 284.75L158.754 331.15L147.071 319.467L193.471 284.75Z"/>
</svg>
