<svg width="431" height="430" viewBox="0 0 431 430" fill="none" xmlns="http://www.w3.org/2000/svg">
<g clip-path="url(#clip0)">
<path d="M215.108 222.673L209.301 55.6682L220.916 55.6682L215.108 222.673Z"/>
<path d="M210.352 211.19L332.549 325.173L324.336 333.386L210.352 211.19Z"/>
<path d="M219.864 220.702L97.668 106.719L105.881 98.506L219.864 220.702Z"/>
<path d="M219.865 211.19L105.881 333.386L97.6681 325.173L219.865 211.19Z"/>
<path d="M210.352 220.702L324.336 98.5059L332.549 106.719L210.352 220.702Z"/>
<path d="M213.368 209.449L262.201 369.26L250.982 372.266L213.368 209.449Z"/>
<path d="M216.849 222.443L168.016 62.6325L179.235 59.6264L216.849 222.443Z"/>
<path d="M221.605 214.205L61.7946 263.039L58.7885 251.82L221.605 214.205Z"/>
<path d="M208.611 217.687L368.422 168.854L371.428 180.073L208.611 217.687Z"/>
<path d="M209.283 212.583L356.817 291.056L351.01 301.114L209.283 212.583Z"/>
<path d="M220.933 219.309L73.3997 140.837L79.2071 130.778L220.933 219.309Z"/>
<path d="M218.471 210.121L139.998 357.655L129.94 351.847L218.471 210.121Z"/>
<path d="M211.745 221.771L290.218 74.2374L300.277 80.0448L211.745 221.771Z"/>
<path d="M211.746 210.121L300.277 351.847L290.219 357.655L211.746 210.121Z"/>
<path d="M218.471 221.771L129.94 80.045L139.998 74.2376L218.471 221.771Z"/>
<path d="M220.934 212.583L79.2073 301.114L73.3999 291.056L220.934 212.583Z"/>
<path d="M209.283 219.309L351.009 130.778L356.817 140.836L209.283 219.309Z"/>
<path d="M208.611 214.205L371.428 251.819L368.422 263.039L208.611 214.205Z"/>
<path d="M221.605 217.687L58.7885 180.073L61.7946 168.854L221.605 217.687Z"/>
<path d="M216.849 209.449L179.235 372.266L168.016 369.26L216.849 209.449Z"/>
<path d="M213.367 222.443L250.982 59.6263L262.201 62.6324L213.367 222.443Z"/>
<path d="M210.964 210.648L318.432 338.612L309.284 345.768L210.964 210.648Z"/>
<path d="M219.253 221.244L111.784 93.28L120.933 86.124L219.253 221.244Z"/>
<path d="M220.406 211.802L92.442 319.27L85.286 310.121L220.406 211.802Z"/>
<path d="M209.81 220.09L337.774 112.622L344.93 121.771L209.81 220.09Z"/>
<path d="M208.432 215.13L374.908 229.623L373.499 241.152L208.432 215.13Z"/>
<path d="M214.293 222.623L228.786 56.1469L240.315 57.5558L214.293 222.623Z"/>
<path d="M209.734 211.901L346.66 307.69L339.676 316.97L209.734 211.901Z"/>
<path d="M220.482 219.991L83.5566 124.202L90.5412 114.922L220.482 219.991Z"/>
<path d="M219.153 210.572L123.364 347.498L114.084 340.513L219.153 210.572Z"/>
<path d="M211.063 221.32L306.852 84.3945L316.132 91.3791L211.063 221.32Z"/>
<path d="M208.448 216.886L373.002 187.798L374.625 199.299L208.448 216.886Z"/>
<path d="M216.048 222.606L186.96 58.0521L198.461 56.4291L216.048 222.606Z"/>
<path d="M208.871 213.43L365.923 270.516L361.578 281.287L208.871 213.43Z"/>
<path d="M221.346 218.462L64.2941 161.376L68.6389 150.605L221.346 218.462Z"/>
<path d="M217.624 209.708L160.538 366.76L149.767 362.415L217.624 209.708Z"/>
<path d="M212.592 222.184L269.678 65.1319L280.45 69.4767L212.592 222.184Z"/>
<path d="M208.918 218.578L360.337 147.891L364.881 158.58L208.918 218.578Z"/>
<path d="M221.298 213.314L69.8796 284.001L65.3352 273.312L221.298 213.314Z"/>
<path d="M212.477 209.756L283.163 361.175L272.474 365.719L212.477 209.756Z"/>
<path d="M217.74 222.136L147.053 70.7177L157.742 66.1733L217.74 222.136Z"/>
<path d="M215.108 209.22L220.916 376.224H209.301L215.108 209.22Z"/>
<path d="M221.835 215.946L54.8303 221.754L54.8303 210.139L221.835 215.946Z"/>
<path d="M208.382 215.946L375.387 210.139L375.387 221.754L208.382 215.946Z"/>
<path d="M221.785 216.762L55.3093 202.269L56.7181 190.74L221.785 216.762Z"/>
<path d="M215.924 209.269L201.431 375.745L189.902 374.336L215.924 209.269Z"/>
<path d="M221.768 215.006L57.2141 244.094L55.591 232.593L221.768 215.006Z"/>
<path d="M214.168 209.286L243.256 373.84L231.755 375.463L214.168 209.286Z"/>
</g>
<defs>
<clipPath id="clip0">
<rect width="430" height="430" fill="white" transform="translate(0.733398)"/>
</clipPath>
</defs>
</svg>
