<svg width="21" height="21" viewBox="0 0 21 21" fill="none" xmlns="http://www.w3.org/2000/svg">
<path d="M0 0.202637V20.4729H20.428V0.202637H0ZM16.971 5.00513L15.871 6.04463C15.7767 6.1174 15.7348 6.23174 15.7453 6.34609V14.0072C15.7243 14.1216 15.7767 14.2359 15.871 14.3087L16.9395 15.3482V15.5769H11.5549V15.3482L12.6654 14.2775C12.7701 14.1735 12.7701 14.1423 12.7701 13.976V7.79099L9.69021 15.5561H9.27118L5.69889 7.79099V12.9989C5.66746 13.2172 5.7408 13.4355 5.89793 13.5914L7.33313 15.3378V15.5665H3.24753V15.3378L4.69321 13.6018C4.85034 13.4459 4.9132 13.2172 4.88177 13.0093V6.98018C4.90272 6.81386 4.82939 6.64754 4.70368 6.5332L3.42562 5.00513V4.77644H7.40646L10.4864 11.4708L13.1787 4.77644H16.971V5.00513Z" fill="#442547"/>
</svg>
