<svg width="22" height="18" viewBox="0 0 22 18" fill="none" xmlns="http://www.w3.org/2000/svg">
<path d="M21.1089 2.55004C20.3287 2.89308 19.4957 3.12177 18.6206 3.22572C19.5168 2.69557 20.2022 1.86397 20.5185 0.86605C19.6855 1.35461 18.7577 1.70805 17.7665 1.90555C16.9757 1.07395 15.8581 0.554199 14.6033 0.554199C12.2099 0.554199 10.2803 2.46688 10.2803 4.81615C10.2803 5.14879 10.3225 5.47104 10.3963 5.79328C6.80084 5.61657 3.61657 3.92218 1.47615 1.33382C1.10711 1.96792 0.88569 2.69557 0.88569 3.4752C0.88569 4.95129 1.64485 6.26106 2.81523 7.03029C2.10879 7.0095 1.43397 6.812 0.854058 6.50014C0.854058 6.52094 0.854058 6.53133 0.854058 6.55212C0.854058 8.62073 2.34075 10.3463 4.32301 10.7309C3.96452 10.8245 3.57439 10.8764 3.18427 10.8764C2.91013 10.8764 2.63598 10.8453 2.37238 10.8037C2.92067 12.4981 4.52335 13.7351 6.41071 13.7663C4.93456 14.9097 3.06828 15.5958 1.03331 15.5958C0.685356 15.5958 0.337406 15.575 -3.14234e-10 15.5334C1.919 16.7392 4.18594 17.4461 6.63213 17.4461C14.5928 17.4461 18.9369 10.9492 18.9369 5.31511C18.9369 5.128 18.9369 4.95129 18.9264 4.76418C19.791 4.16127 20.529 3.41283 21.1089 2.55004Z" fill="#442547"/>
</svg>
